<?xml version="1.0" standalone="no"?>
<!DOCTYPE svg PUBLIC "-//W3C//DTD SVG 20010904//EN"
 "http://www.w3.org/TR/2001/REC-SVG-20010904/DTD/svg10.dtd">
<svg version="1.0" xmlns="http://www.w3.org/2000/svg"
 width="1280.000000pt" height="1280.000000pt" viewBox="0 0 1280.000000 1280.000000"
 preserveAspectRatio="xMidYMid meet">

<g transform="translate(0.000000,1280.000000) scale(0.100000,-0.100000)"
fill="#000000" stroke="none">
<path d="M0 6400 l0 -6400 6400 0 6400 0 0 6400 0 6400 -6400 0 -6400 0 0
-6400z m4214 5056 c91 -45 113 -62 244 -190 165 -160 317 -331 412 -459 36
-48 123 -165 194 -260 216 -288 365 -514 535 -811 50 -88 91 -166 91 -175 0
-11 -29 -27 -93 -49 -115 -42 -437 -202 -537 -267 -181 -117 -332 -277 -518
-550 -30 -44 -62 -89 -72 -100 -9 -11 -20 -27 -23 -35 -4 -8 -32 -53 -62 -99
-38 -59 -53 -91 -49 -105 4 -16 3 -18 -5 -7 -8 12 -13 9 -28 -17 -10 -18 -23
-32 -29 -32 -10 0 -76 81 -149 185 -83 118 -173 241 -197 270 -16 18 -28 37
-28 43 0 6 -4 12 -8 14 -18 7 -292 446 -292 468 0 5 -4 10 -9 12 -5 2 -29 41
-54 88 -24 47 -61 114 -82 150 -42 74 -222 435 -277 555 -116 258 -123 286
-114 454 7 132 23 202 70 304 81 178 270 403 443 526 159 115 241 142 418 138
l120 -2 99 -49z m1336 -1036 c0 -5 -2 -10 -4 -10 -3 0 -8 5 -11 10 -3 6 -1 10
4 10 6 0 11 -4 11 -10z m1170 -643 c30 -8 89 -18 130 -22 41 -3 95 -11 120
-16 99 -21 394 -118 485 -159 22 -10 87 -40 145 -66 94 -42 281 -147 320 -179
8 -7 34 -24 57 -36 23 -13 75 -51 115 -84 77 -63 228 -214 228 -227 0 -11
-103 -151 -161 -219 -82 -96 -119 -157 -119 -198 0 -82 54 -174 183 -308 34
-36 48 -43 79 -43 20 0 49 5 63 12 21 9 31 9 46 0 35 -22 72 -12 207 54 74 36
135 64 136 62 19 -31 82 -187 106 -263 18 -55 63 -179 101 -276 70 -180 76
-198 136 -429 175 -678 272 -1434 273 -2150 1 -269 19 -571 46 -750 8 -52 19
-129 24 -170 6 -41 15 -96 21 -121 10 -45 -1 -123 -51 -374 -14 -69 -40 -300
-40 -355 -1 -94 -67 -374 -145 -610 -42 -129 -88 -271 -102 -315 -32 -100 -57
-147 -156 -305 -129 -203 -228 -317 -370 -423 -89 -66 -116 -82 -297 -175
-439 -226 -455 -232 -775 -277 -322 -45 -413 -67 -576 -135 -367 -154 -623
-197 -889 -151 -98 17 -142 31 -203 62 -101 51 -174 106 -182 138 -10 40 -70
164 -111 227 -61 95 -143 269 -176 373 -59 185 -117 328 -223 546 -75 156
-114 256 -124 322 -12 77 -8 98 19 113 13 7 34 1 79 -22 58 -29 63 -30 79 -15
10 11 19 44 23 93 4 42 12 81 17 86 15 15 71 -15 136 -71 79 -70 94 -67 116
24 21 91 34 114 76 131 44 18 61 10 166 -83 82 -72 157 -155 192 -213 22 -35
31 -55 107 -235 24 -55 65 -129 91 -165 26 -36 64 -90 84 -120 64 -97 104
-127 104 -77 -1 35 -33 96 -94 177 -54 73 -81 122 -200 373 -54 113 -56 119
-41 146 41 79 216 270 338 368 98 79 146 107 260 152 l92 36 195 0 c220 -1
254 -7 502 -89 76 -26 151 -46 167 -46 36 0 98 41 225 150 219 189 281 263
368 441 84 170 126 324 107 395 -24 92 -63 200 -78 218 -19 22 -129 74 -224
105 -58 20 -82 22 -175 18 -147 -7 -210 -20 -284 -57 -60 -31 -178 -99 -188
-110 -3 -3 -32 -25 -65 -49 -33 -25 -62 -47 -65 -51 -18 -21 -137 -103 -196
-133 -158 -83 -331 -122 -534 -121 -133 1 -156 4 -285 38 -251 66 -491 174
-748 339 -148 95 -198 120 -316 153 -76 22 -106 25 -165 21 -39 -3 -81 -9 -93
-12 -30 -10 -43 25 -43 113 1 122 38 169 180 229 61 25 74 27 220 27 102 0
187 -6 250 -18 221 -40 369 -71 598 -127 l243 -60 47 34 c26 18 67 45 92 59
52 30 108 88 237 243 128 155 312 315 588 511 66 47 148 105 183 129 67 48 76
65 36 65 -37 0 -116 -42 -214 -112 -64 -46 -104 -67 -162 -84 -122 -36 -231
-74 -253 -88 -34 -22 -207 -84 -278 -101 -135 -30 -236 -15 -378 56 -79 39
-159 129 -183 205 -79 247 -117 330 -205 444 -47 62 -362 370 -378 370 -17 0
-16 6 3 57 9 24 14 47 10 51 -7 7 -19 -6 -73 -77 -13 -16 -49 -44 -80 -63
-100 -58 -107 -62 -183 -119 -41 -31 -109 -75 -150 -98 -41 -23 -97 -55 -125
-71 -27 -16 -73 -36 -102 -45 -66 -19 -212 -19 -287 0 -79 21 -190 76 -257
129 -117 92 -240 278 -292 442 -69 220 7 512 226 864 79 127 62 107 375 429
297 304 526 518 697 651 39 30 72 57 75 60 12 13 113 92 210 166 108 81 156
114 225 155 36 21 81 53 184 131 20 16 54 40 76 55 55 38 116 84 140 106 40
37 252 156 308 173 109 34 47 47 -89 18 -42 -8 -77 -14 -78 -12 0 2 -22 47
-49 101 -40 83 -55 126 -44 127 1 0 20 7 42 15 53 21 461 14 545 -8z m-3593
-549 c-3 -7 -5 -2 -5 12 0 14 2 19 5 13 2 -7 2 -19 0 -25z m168 -514 c8 -9 24
-33 35 -54 11 -21 24 -41 30 -45 17 -11 11 -25 -11 -25 -11 0 -55 14 -96 30
-66 26 -78 29 -92 17 -9 -8 -35 -17 -58 -20 -75 -9 -168 -64 -268 -159 -106
-101 -150 -162 -200 -278 -82 -191 -118 -437 -80 -549 38 -116 144 -201 252
-201 114 0 247 83 388 243 79 90 162 233 189 328 25 85 46 218 46 291 l0 67
63 -35 c89 -51 127 -91 197 -215 34 -60 66 -111 71 -114 26 -17 -13 -146 -81
-265 -65 -113 -183 -238 -326 -346 -179 -134 -301 -179 -469 -172 -111 5 -175
31 -257 107 -105 96 -151 213 -150 386 1 177 38 312 140 508 78 152 171 258
318 364 88 64 138 89 244 124 101 34 95 33 115 13z m563 -1003 c20 -10 63 -26
95 -35 86 -25 92 -47 43 -139 -77 -143 -95 -185 -135 -306 -47 -142 -61 -209
-70 -342 -6 -102 -1 -89 -94 -229 -114 -172 -282 -252 -491 -234 -65 5 -94 14
-165 50 -48 24 -113 67 -146 97 -107 97 -145 198 -145 384 0 86 -3 113 -13
113 -22 0 -101 -171 -123 -266 -1 -6 -22 -14 -46 -18 -24 -4 -67 -20 -97 -36
-30 -17 -56 -28 -59 -26 -2 3 -4 35 -4 73 1 103 31 205 118 394 l37 78 44 -34
c165 -126 381 -138 602 -34 47 22 110 47 140 55 101 27 183 86 291 209 44 50
113 155 143 217 12 26 26 48 30 48 4 0 24 -8 45 -19z m-1133 -1001 c10 -44 77
-142 122 -178 l41 -32 6 -132 c3 -73 8 -158 11 -188 3 -37 2 -48 -4 -35 -5 11
-28 40 -52 65 -23 25 -50 57 -58 71 -35 58 -54 74 -120 104 -44 20 -86 19
-124 -2 -84 -47 -102 -84 -94 -197 5 -75 4 -86 -19 -125 -13 -24 -27 -68 -30
-100 -4 -31 -12 -61 -20 -67 -21 -17 -54 -95 -54 -130 0 -17 4 -44 9 -60 5
-16 12 -58 14 -94 l5 -65 -36 45 c-21 24 -74 84 -119 133 -46 49 -83 94 -83
101 0 7 18 36 40 65 43 59 46 70 55 251 8 148 27 235 76 337 77 162 215 260
366 262 60 1 62 0 68 -29z m1205 -255 c0 0 -37 -1 -82 0 -66 0 -92 -5 -129
-22 -32 -17 -63 -23 -107 -23 -67 0 -113 -15 -151 -49 -19 -16 -32 -20 -61
-15 -33 5 -69 2 -220 -22 -35 -6 -35 -6 -16 15 16 18 31 21 90 21 74 0 172 19
241 46 62 24 193 117 263 185 l63 62 55 -99 c30 -54 54 -98 54 -99z m-917 -30
c48 -24 56 -33 51 -50 -14 -45 -83 -185 -92 -185 -15 0 -23 44 -32 155 -7 97
-5 120 8 113 4 -2 33 -17 65 -33z m2356 -57 c145 -83 294 -288 337 -465 20
-84 28 -247 15 -322 -6 -36 -26 -97 -44 -136 -33 -69 -44 -81 -171 -199 -17
-16 -71 -56 -121 -89 l-90 -61 -126 -7 c-177 -11 -305 -56 -382 -136 -47 -48
-62 -96 -61 -203 1 -69 6 -98 29 -155 l28 -69 -44 -35 c-83 -66 -175 -166
-244 -266 -38 -55 -73 -104 -78 -110 -4 -5 -22 -31 -40 -56 -54 -79 -218 -297
-302 -403 -44 -56 -92 -119 -106 -141 -45 -68 -136 -161 -202 -206 -34 -23
-83 -62 -109 -86 -87 -80 -192 -109 -335 -92 -111 13 -229 35 -313 59 -88 26
-220 58 -307 75 -89 17 -249 79 -337 131 -37 21 -79 46 -94 54 -15 8 -43 25
-63 36 -20 12 -53 27 -75 34 -101 33 -445 257 -614 399 -14 11 -29 24 -35 28
-22 17 -120 98 -125 103 -11 11 -165 132 -179 140 -13 7 -11 18 12 77 15 38
27 72 27 76 0 4 16 33 35 63 19 30 35 57 35 60 0 3 18 32 41 65 22 33 63 103
91 157 56 107 159 284 187 320 l17 24 140 -12 c76 -7 169 -10 207 -9 37 2 67
3 67 2 0 -3 -60 -62 -180 -177 -36 -35 -89 -82 -117 -106 -74 -60 -125 -132
-158 -223 -23 -64 -27 -88 -23 -141 14 -167 143 -277 332 -282 l69 -1 22 -64
c40 -122 131 -232 233 -280 62 -30 70 -31 145 -26 73 6 81 5 111 -18 117 -89
401 -149 540 -114 39 10 49 9 64 -4 36 -33 197 -99 253 -104 83 -8 187 29 325
117 35 22 76 97 83 152 l6 52 65 24 c140 52 345 169 409 234 57 58 81 106 86
178 3 33 16 90 30 128 13 37 31 109 40 160 9 51 20 104 25 118 6 14 10 34 10
45 0 20 92 164 119 187 8 6 25 12 38 12 24 0 107 75 154 139 58 80 192 227
212 233 12 4 41 12 64 19 73 21 121 94 134 204 5 39 20 97 33 130 39 93 31
160 -26 211 -32 29 -127 47 -199 39 -49 -6 -66 -3 -97 13 -77 40 -237 1 -324
-78 -18 -17 -36 -30 -40 -30 -9 0 -77 38 -95 52 -7 6 -15 26 -19 47 -8 46 -41
120 -64 146 -10 11 -25 43 -33 70 -8 28 -22 67 -30 88 -9 20 -14 37 -11 37 2
0 26 -11 52 -24 26 -13 72 -32 104 -41 l56 -18 11 -77 c7 -43 14 -111 17 -151
2 -40 6 -75 9 -77 16 -17 74 28 204 158 83 83 151 154 151 160 0 5 37 26 83
48 45 21 123 66 172 99 137 91 188 122 209 122 10 1 44 -13 75 -31z m-669
-254 c0 -3 -18 -36 -39 -72 -41 -71 -138 -164 -145 -140 -2 7 -10 57 -18 110
l-14 97 80 4 c45 1 93 4 109 5 15 1 27 -1 27 -4z m-2624 -351 c177 -191 191
-207 237 -280 65 -101 99 -253 65 -281 -49 -39 -257 -62 -373 -42 -119 21
-333 24 -385 6 -51 -18 -56 -14 -66 53 -24 160 52 397 173 539 37 43 167 111
214 112 32 0 44 -9 135 -107z m920 -3128 c32 -8 62 -19 68 -25 6 -6 -6 -29
-33 -65 -50 -66 -105 -168 -152 -280 -35 -85 -67 -121 -117 -131 -28 -6 -32
-3 -51 34 l-20 40 44 122 c24 67 56 141 69 164 34 56 114 156 126 156 5 0 35
-7 66 -15z m-676 -11 c21 -5 54 -29 98 -73 52 -52 75 -86 113 -166 51 -109 71
-185 121 -465 31 -174 33 -198 32 -405 -2 -239 -12 -309 -59 -410 -28 -58 -66
-92 -133 -118 -51 -20 -94 -15 -162 18 -25 12 -62 28 -83 34 -30 10 -42 22
-61 59 -27 55 -43 115 -51 192 -17 166 -143 742 -201 922 -40 121 -70 348 -47
348 3 0 27 -18 54 -41 27 -23 55 -39 63 -36 15 6 26 51 26 103 0 46 15 43 72
-13 55 -54 75 -52 91 8 5 19 14 37 20 41 15 9 64 10 107 2z"/>
<path d="M5885 8630 c-63 -16 -211 -81 -272 -121 -153 -100 -240 -252 -298
-522 -28 -130 -16 -377 27 -527 78 -278 242 -459 527 -580 117 -50 202 -64
348 -58 106 4 127 8 205 40 188 77 303 182 387 352 51 102 71 178 78 289 12
188 -44 471 -123 613 -98 178 -218 310 -355 390 -114 67 -215 112 -278 124
-61 11 -201 12 -246 0z m310 -100 c32 -13 81 -36 108 -52 26 -15 50 -28 54
-28 14 0 133 -93 180 -141 190 -196 295 -492 281 -795 -13 -283 -185 -509
-457 -601 -101 -34 -260 -35 -375 -4 -223 61 -424 219 -515 404 -129 262 -133
621 -12 906 36 85 83 148 166 221 63 55 91 72 159 97 95 36 308 32 411 -7z"/>
<path d="M6054 8430 c-231 -49 -361 -325 -313 -666 20 -145 95 -291 198 -387
100 -92 256 -153 376 -145 111 7 251 95 324 203 104 154 119 417 34 608 -86
194 -207 328 -332 368 -73 23 -221 33 -287 19z"/>
</g>
</svg>
