<?xml version="1.0" standalone="no"?>
<!DOCTYPE svg PUBLIC "-//W3C//DTD SVG 20010904//EN"
 "http://www.w3.org/TR/2001/REC-SVG-20010904/DTD/svg10.dtd">
<svg version="1.0" xmlns="http://www.w3.org/2000/svg"
 width="989.000000pt" height="980.000000pt" viewBox="0 0 989.000000 980.000000"
 preserveAspectRatio="xMidYMid meet">

<g transform="translate(0.000000,980.000000) scale(0.100000,-0.100000)"
fill="#000000" stroke="none">
<path d="M3825 8805 c-298 -65 -580 -325 -695 -643 -58 -159 -72 -261 -66
-472 3 -106 11 -217 20 -259 40 -193 145 -438 263 -616 226 -340 612 -798
1053 -1248 129 -132 263 -273 298 -315 76 -92 162 -218 162 -238 0 -20 -32 -3
-195 104 -250 162 -401 283 -909 726 -170 148 -354 304 -409 348 -304 242
-620 403 -941 481 -77 18 -120 21 -281 21 -165 0 -201 -3 -270 -22 -352 -97
-610 -375 -671 -724 -51 -292 69 -632 305 -863 104 -102 200 -173 315 -231 53
-27 96 -51 95 -54 0 -3 -44 -26 -97 -52 -309 -149 -545 -432 -607 -728 -68
-325 88 -690 365 -854 255 -151 535 -152 778 -5 46 28 85 49 87 47 2 -1 -5
-35 -15 -74 -40 -157 -44 -357 -10 -499 19 -76 81 -202 135 -274 94 -123 266
-237 419 -276 456 -116 927 209 1257 866 109 219 189 441 299 834 120 428 252
851 286 916 17 35 63 64 76 51 8 -8 6 -118 -6 -354 -41 -867 -43 -1093 -10
-1475 24 -284 64 -531 125 -778 101 -409 261 -808 419 -1043 68 -102 96 -126
145 -125 80 2 301 153 377 257 50 70 43 90 -76 215 -173 181 -268 309 -395
530 -213 373 -348 834 -396 1361 -27 304 -61 1394 -43 1414 15 18 53 -11 80
-60 33 -62 108 -300 253 -804 145 -503 193 -642 303 -880 145 -312 390 -633
587 -770 90 -61 235 -132 325 -156 92 -26 302 -26 385 0 193 58 379 204 473
367 101 178 125 429 62 673 -11 44 -18 81 -16 84 3 2 25 -10 50 -28 213 -146
489 -169 722 -61 238 111 421 346 465 596 7 41 10 113 6 179 -17 353 -260 681
-637 862 -44 21 -80 41 -80 44 0 3 30 21 68 40 197 101 373 255 481 419 76
116 112 191 147 306 24 79 27 107 27 225 1 247 -74 442 -237 617 -184 198
-416 294 -710 294 -237 0 -445 -55 -721 -191 -302 -148 -481 -281 -1005 -747
-344 -305 -564 -480 -838 -663 -137 -91 -182 -112 -182 -82 0 13 138 201 199
272 31 36 160 171 287 300 368 375 557 588 799 900 366 473 504 777 521 1155
17 354 -82 651 -290 872 -134 143 -246 217 -406 269 -77 25 -99 28 -235 28
-173 1 -239 -12 -373 -75 -205 -95 -370 -256 -507 -494 -31 -55 -61 -104 -65
-108 -4 -5 -20 13 -36 40 -173 304 -324 458 -548 564 -121 56 -227 79 -366 78
-63 0 -142 -6 -175 -14z m443 -664 c50 -99 92 -208 151 -387 46 -138 106 -299
134 -357 29 -59 51 -107 50 -107 -10 0 -83 89 -127 155 -70 104 -104 195 -127
330 -23 137 -48 220 -106 355 -25 58 -52 121 -60 140 -14 31 -14 33 1 21 9 -7
47 -75 84 -150z m-163 70 c73 -111 139 -260 214 -486 38 -115 83 -243 100
-284 17 -41 31 -75 31 -78 0 -2 -39 23 -87 55 -49 32 -142 91 -208 132 -247
151 -363 225 -461 296 -131 95 -172 140 -59 64 56 -37 162 -96 210 -115 l40
-17 -66 69 c-73 75 -152 170 -170 205 -6 13 35 -22 92 -77 214 -206 260 -248
264 -243 7 7 -87 148 -176 265 -46 59 -87 115 -93 123 -17 24 32 -18 112 -94
39 -39 72 -67 72 -63 0 4 -17 45 -39 91 -41 88 -55 126 -48 126 7 0 102 -164
217 -373 50 -93 94 -166 97 -163 7 7 -52 214 -93 324 -20 53 -59 144 -85 201
-27 57 -47 106 -45 108 6 6 143 -214 177 -285 17 -35 57 -131 89 -215 70 -183
90 -230 95 -226 7 8 -28 177 -60 290 -37 127 -108 310 -155 396 -38 71 -22 58
35 -26z m1601 51 c-25 -47 -112 -274 -125 -322 -6 -25 -22 -101 -36 -170 -29
-151 -82 -267 -175 -380 -34 -41 -65 -76 -68 -78 -4 -1 16 46 45 105 28 60 90
223 138 363 76 223 135 363 201 477 23 40 40 44 20 5z m119 -14 c-49 -90 -130
-313 -171 -471 -25 -99 -54 -240 -50 -244 1 -2 38 86 81 195 91 231 147 348
217 455 28 42 52 77 54 77 2 0 -11 -30 -27 -67 -49 -108 -115 -282 -137 -363
-26 -92 -51 -200 -47 -200 2 0 44 76 94 170 103 192 199 360 213 375 11 12
-32 -108 -56 -153 -9 -17 -16 -34 -16 -38 0 -3 32 23 71 57 39 35 80 71 92 79
l22 15 -20 -27 c-11 -14 -59 -77 -106 -140 -81 -108 -149 -210 -149 -226 0 -8
162 140 278 254 45 45 82 79 82 75 0 -18 -69 -103 -153 -188 -51 -51 -87 -93
-82 -93 18 0 202 97 266 140 l64 43 -45 -48 c-47 -50 -175 -139 -350 -245 -58
-35 -198 -123 -312 -196 -115 -73 -208 -132 -208 -130 0 2 18 41 39 87 22 46
71 179 111 294 73 213 130 347 196 458 55 91 93 134 49 55z m-268 10 c-68
-157 -91 -242 -147 -533 -12 -60 -34 -140 -49 -176 -32 -76 -106 -192 -146
-229 -23 -20 -16 -3 36 97 35 67 61 125 57 128 -3 3 -46 -49 -97 -116 -50 -68
-91 -117 -91 -111 0 6 34 69 77 139 75 126 135 244 148 293 4 14 -39 -44 -95
-128 -56 -85 -104 -152 -106 -149 -11 11 394 797 410 797 4 0 6 -6 3 -12z
m-967 -193 c73 -149 205 -473 197 -481 -18 -19 -206 375 -291 611 l-26 70 26
-30 c13 -16 56 -93 94 -170z m-180 80 c59 -103 357 -695 342 -680 -20 21 -121
163 -166 235 -26 41 -45 64 -41 50 19 -64 83 -188 205 -392 38 -66 13 -42 -70
67 -45 57 -85 107 -90 110 -12 7 11 -48 62 -149 22 -43 37 -80 34 -83 -9 -9
-99 123 -138 203 -32 66 -45 114 -73 262 -38 205 -63 302 -106 405 -45 112
-36 105 41 -28z m925 -72 c-34 -87 -76 -190 -92 -229 -35 -84 -123 -247 -129
-241 -6 6 115 315 166 421 41 87 108 206 114 206 2 0 -24 -71 -59 -157z m-190
-184 c-130 -313 -123 -298 -124 -278 -2 35 50 212 87 298 39 88 130 246 138
238 3 -2 -43 -118 -101 -258z m-406 107 c55 -100 139 -347 129 -377 -2 -5 -19
25 -37 68 -65 148 -181 436 -181 447 0 12 47 -60 89 -138z m1612 -207 c-85
-79 -217 -167 -521 -349 -323 -194 -428 -263 -553 -364 -139 -113 -148 -118
-110 -71 61 77 209 214 319 297 135 100 253 171 524 314 215 112 344 190 375
224 10 11 21 17 24 14 3 -3 -23 -33 -58 -65z m-2744 -22 c23 -14 151 -86 285
-158 244 -132 404 -229 511 -308 134 -99 295 -245 357 -325 8 -11 -50 30 -130
90 -145 109 -259 184 -635 414 -274 168 -390 249 -455 316 -50 52 -51 55 -15
28 22 -16 59 -42 82 -57z m2843 -69 c-153 -138 -407 -296 -766 -476 -100 -50
-223 -116 -274 -147 -51 -31 -94 -54 -97 -52 -5 6 153 125 274 205 137 92 315
192 528 297 105 52 231 121 280 154 50 33 92 60 95 60 3 0 -15 -18 -40 -41z
m-2948 -21 c46 -30 182 -105 303 -167 242 -124 425 -231 555 -324 95 -67 210
-156 210 -161 0 -2 -42 20 -92 49 -51 30 -183 100 -293 157 -327 170 -581 327
-713 444 -35 30 -61 55 -58 55 3 0 43 -24 88 -53z m-4 -130 c40 -27 191 -108
335 -181 250 -127 432 -231 634 -361 50 -33 92 -63 92 -67 1 -4 -63 24 -141
62 -79 37 -210 93 -293 124 -374 141 -449 175 -580 261 -44 29 -105 76 -135
104 l-55 51 93 -61 c50 -33 125 -75 165 -94 80 -37 207 -86 207 -80 0 2 -46
31 -102 66 -110 66 -270 182 -303 219 -23 26 -19 24 83 -43z m2932 3 c-57 -51
-228 -167 -308 -210 -35 -18 -61 -35 -58 -37 7 -7 188 67 266 108 41 23 102
59 135 81 51 35 56 37 35 13 -74 -83 -279 -206 -455 -273 -288 -111 -531 -210
-608 -248 -49 -25 -91 -43 -94 -40 -7 7 225 158 377 245 69 40 242 130 385
202 143 71 280 145 305 164 62 47 75 44 20 -5z m80 -184 c0 -10 -169 -116
-240 -151 -101 -51 -194 -113 -287 -193 -126 -109 -141 -118 -349 -216 -110
-51 -264 -125 -343 -165 -78 -39 -148 -71 -154 -71 -37 0 207 153 463 290 153
82 323 184 370 221 l25 20 -35 -14 c-138 -55 -356 -154 -764 -346 -60 -28
-110 -50 -112 -48 -9 8 38 39 196 130 360 206 502 273 787 371 210 71 322 115
391 151 52 27 52 27 52 21z m-2915 -94 c44 -17 152 -54 240 -82 103 -33 221
-81 331 -134 263 -128 654 -349 640 -363 -5 -5 -59 19 -381 172 -301 143 -334
158 -449 206 -50 21 -65 24 -55 12 26 -31 133 -95 524 -311 98 -54 278 -173
290 -192 6 -10 -352 162 -566 271 -99 51 -168 95 -255 165 -111 89 -181 134
-377 244 -42 24 -92 56 -110 72 l-32 29 60 -29 c33 -16 96 -43 140 -60z m1376
-559 c10 -308 10 -454 0 -745 -7 -200 -16 -383 -20 -408 l-8 -45 -6 35 c-34
175 -34 1270 0 1590 l7 65 7 -55 c4 -30 13 -227 20 -437z m-1376 336 c162 -87
302 -152 317 -147 5 2 -10 18 -34 35 -62 46 -165 142 -152 143 14 0 237 -135
429 -261 88 -58 181 -118 208 -133 26 -15 47 -29 47 -31 0 -1 -72 22 -161 52
-88 30 -165 53 -170 51 -5 -2 75 -48 179 -102 221 -117 329 -180 368 -213 26
-21 23 -21 -34 7 -35 17 -136 63 -225 101 -191 83 -328 154 -414 216 -35 24
-63 46 -63 48 0 3 12 0 26 -6 15 -5 29 -8 31 -5 5 5 -36 29 -162 96 -132 70
-260 151 -310 194 -22 20 -38 35 -35 36 3 0 73 -36 155 -81z m2824 55 c-23
-28 -202 -140 -357 -224 -149 -82 -179 -104 -107 -80 53 17 52 7 -2 -32 -77
-56 -125 -81 -358 -186 -121 -55 -260 -118 -310 -141 -192 -87 50 63 368 229
98 51 176 95 173 97 -3 3 -78 -20 -167 -51 -90 -30 -165 -54 -166 -52 -2 2 24
20 59 40 35 19 115 69 178 110 180 117 419 266 427 266 9 0 -67 -72 -150 -141
-32 -27 -52 -49 -45 -49 14 0 428 206 443 221 16 15 28 10 14 -7z m-2779 -278
c53 -29 145 -89 205 -133 202 -146 448 -307 703 -457 73 -43 135 -82 138 -87
19 -32 -351 156 -520 263 -152 96 -549 386 -630 459 -25 23 17 4 104 -45z
m2520 -101 c-320 -245 -520 -374 -743 -479 -116 -55 -197 -89 -197 -82 0 2 55
37 123 77 67 40 158 94 202 120 86 52 273 177 493 331 124 87 293 187 315 188
5 0 -82 -70 -193 -155z m-185 -6 c-83 -85 -196 -159 -388 -254 -211 -103 -286
-136 -252 -109 11 8 137 83 280 166 143 83 289 171 325 195 36 23 67 43 69 43
3 0 -13 -18 -34 -41z m-1880 -93 c419 -249 485 -289 485 -292 0 -16 -409 190
-505 254 -81 55 -215 168 -190 160 6 -2 100 -57 210 -122z m-135 -171 c376
-219 661 -395 637 -395 -16 0 -149 72 -288 155 -79 48 -234 137 -344 197 -195
108 -285 168 -335 224 l-25 28 30 -19 c17 -10 163 -96 325 -190z m2260 145
c-30 -27 -98 -73 -150 -101 -142 -78 -233 -130 -472 -270 -227 -134 -298 -173
-298 -164 0 8 254 174 387 253 251 149 568 331 578 331 6 0 -15 -22 -45 -49z
m-3390 -484 c273 -281 343 -351 317 -315 -45 63 -172 251 -232 344 -77 120
-34 80 101 -95 104 -135 174 -218 174 -208 0 3 -25 48 -55 99 -99 168 -59 133
96 -83 50 -71 93 -128 95 -128 2 0 -22 53 -55 118 -75 150 -161 280 -242 367
-53 57 -58 65 -30 49 56 -32 193 -185 245 -275 27 -46 103 -172 169 -279 175
-285 200 -326 252 -420 27 -47 81 -136 121 -198 41 -62 74 -115 74 -118 0 -2
-22 20 -48 49 -49 54 -117 148 -270 372 -76 110 -187 247 -148 183 9 -15 66
-121 127 -235 61 -115 127 -235 147 -268 89 -151 16 -59 -145 184 -118 177
-154 223 -277 350 -78 80 -181 193 -231 251 -49 58 -130 152 -179 210 -49 58
-119 136 -155 174 -49 52 -57 63 -31 46 19 -13 100 -91 180 -174z m4059 137
c-119 -127 -238 -314 -303 -478 -15 -38 -15 -39 2 -15 53 78 216 289 220 285
2 -2 -19 -47 -47 -99 -29 -53 -50 -96 -48 -96 2 0 54 64 115 143 117 149 179
222 166 197 -14 -28 -196 -305 -245 -372 -27 -38 -45 -68 -41 -68 10 0 50 42
262 274 134 146 258 266 277 266 3 0 -30 -37 -73 -82 -44 -46 -138 -155 -211
-243 -72 -88 -185 -214 -250 -280 -144 -147 -221 -242 -363 -450 -117 -171
-149 -215 -150 -202 0 5 17 39 39 75 21 37 78 141 126 232 48 91 98 181 110
200 34 56 36 60 31 60 -12 0 -135 -162 -251 -333 -71 -104 -148 -210 -172
-235 l-44 -47 39 60 c21 33 56 92 77 130 60 110 130 226 254 420 63 99 143
232 179 295 89 160 137 223 237 318 90 85 125 110 64 45z m-4324 -47 c409
-308 748 -691 964 -1091 41 -77 26 -60 -142 158 -70 91 -161 203 -202 249 -41
46 -127 142 -190 215 -160 183 -263 271 -471 401 -79 50 -50 47 46 -5 l65 -35
-90 93 c-100 101 -97 103 20 15z m1780 -115 c208 -139 255 -174 170 -126 -63
35 -475 306 -475 312 0 11 121 -63 305 -186z m1485 175 c-49 -47 -574 -380
-540 -343 17 18 538 357 550 357 2 0 -2 -6 -10 -14z m1506 -67 c-47 -44 -86
-84 -86 -88 0 -5 39 12 86 37 48 24 84 39 80 33 -4 -6 -64 -49 -134 -95 -70
-46 -164 -118 -210 -161 -130 -121 -439 -479 -645 -748 -144 -186 -149 -177
-19 33 232 377 501 675 878 975 66 52 123 94 128 95 5 0 -30 -36 -78 -81z
m-4911 -123 c55 -44 152 -123 215 -175 121 -101 179 -147 245 -196 l40 -29
-53 61 c-28 33 -93 100 -143 147 -50 48 -90 89 -87 91 3 4 149 -104 260 -192
88 -70 168 -171 436 -553 53 -74 119 -164 148 -199 30 -36 51 -67 49 -70 -9
-9 -95 81 -218 229 -157 188 -327 357 -557 554 -229 195 -498 438 -499 449 -1
11 40 -18 164 -117z m5350 71 c-16 -12 -91 -74 -165 -137 -75 -63 -214 -178
-310 -255 -240 -193 -348 -301 -579 -579 -92 -110 -191 -216 -201 -216 -5 0
26 47 68 104 43 57 124 168 182 247 152 210 268 322 555 535 246 183 450 324
469 324 6 0 -2 -11 -19 -23z m-227 -17 c-21 -29 -188 -180 -468 -425 -181
-158 -316 -292 -443 -440 -149 -175 -279 -317 -284 -312 -2 3 70 105 159 228
90 123 191 265 225 314 120 175 257 312 435 435 73 50 67 42 -69 -100 -44 -47
-94 -100 -109 -119 l-29 -35 26 17 c14 10 147 118 295 242 148 123 273 224
277 225 4 0 -3 -14 -15 -30z m-5344 -30 c44 -27 119 -79 166 -115 47 -36 139
-104 205 -152 236 -170 387 -313 521 -493 140 -188 270 -365 278 -380 18 -33
-177 174 -290 310 -153 182 -324 349 -479 467 -66 50 -183 146 -260 213 -77
68 -162 140 -188 161 -27 22 -46 39 -42 39 4 0 44 -22 89 -50z m5721 21 c-6
-5 -67 -54 -137 -110 -110 -88 -344 -318 -333 -329 2 -2 39 24 82 58 149 118
463 312 463 286 0 -2 -52 -39 -115 -82 -63 -43 -113 -80 -110 -82 2 -3 79 25
171 62 91 37 168 66 170 63 3 -2 -64 -39 -148 -82 -463 -237 -583 -329 -843
-650 -209 -258 -338 -405 -356 -405 -5 0 18 35 49 78 32 42 112 154 177 247
133 190 247 345 310 420 58 70 64 83 26 55 -60 -42 -225 -213 -306 -315 -204
-259 -340 -421 -360 -429 -7 -2 28 55 79 127 51 73 131 188 178 257 102 149
208 272 307 358 107 92 487 359 631 444 64 38 83 46 65 29z m-5912 -18 c18 -9
79 -48 137 -86 100 -68 147 -101 410 -295 188 -139 290 -255 515 -587 59 -88
119 -175 133 -193 14 -18 22 -35 19 -38 -7 -8 -123 126 -281 326 -131 166
-341 388 -415 440 -25 18 -13 -2 51 -81 81 -100 151 -192 413 -549 138 -188
148 -203 114 -175 -13 11 -29 25 -36 30 -23 18 -176 196 -287 335 -254 317
-400 432 -823 652 -95 49 -173 91 -173 94 0 6 166 -55 249 -91 41 -18 78 -32
80 -29 5 5 18 -4 -139 104 -74 50 -124 89 -110 85 66 -19 283 -153 453 -281
53 -40 97 -71 97 -67 0 20 -215 233 -320 316 -69 55 -127 101 -129 103 -11 10
13 2 42 -13z m4450 -295 c-94 -196 -317 -571 -353 -593 -49 -30 172 393 313
597 83 122 82 119 85 108 2 -5 -18 -56 -45 -112z m-3016 30 c33 -46 86 -126
117 -178 58 -95 236 -448 236 -466 0 -15 -204 299 -269 414 -33 59 -72 134
-87 167 -50 113 -63 145 -60 145 2 0 31 -37 63 -82z m2063 67 c0 -2 -56 -49
-125 -104 -69 -55 -125 -96 -125 -92 0 17 96 103 168 152 73 48 82 53 82 44z
m-1063 -36 c55 -32 178 -138 169 -146 -4 -4 -186 129 -230 169 -21 18 9 6 61
-23z m-2512 -87 c131 -51 268 -121 375 -193 148 -99 328 -282 426 -433 18 -29
18 -29 -1 -18 -11 6 -65 50 -120 98 -55 48 -129 106 -165 130 -58 37 -330 163
-453 209 -26 10 -45 20 -43 22 5 6 160 -33 232 -57 30 -11 54 -17 54 -15 0 13
-133 71 -310 137 -130 48 -81 41 121 -16 85 -24 155 -43 157 -41 5 5 -86 56
-253 143 -167 86 -171 93 -20 34z m6145 43 c0 -3 -60 -35 -132 -71 -124 -62
-268 -142 -268 -149 0 -2 30 5 68 16 112 33 335 89 338 86 2 -2 -46 -20 -107
-41 -118 -40 -316 -123 -324 -136 -3 -5 30 2 72 16 95 30 204 56 209 51 7 -6
-148 -75 -244 -108 -159 -56 -277 -129 -451 -278 -52 -44 -97 -79 -99 -76 -12
12 64 121 140 200 188 198 482 392 710 470 76 26 88 28 88 20z m-4331 -295
c21 -41 62 -140 91 -220 28 -80 76 -191 105 -247 29 -57 50 -103 45 -103 -10
0 -75 110 -128 215 -36 73 -202 477 -202 492 0 16 55 -68 89 -137z m2405 -52
c-68 -179 -186 -438 -199 -438 -3 0 2 17 11 38 10 20 47 123 84 227 36 105 74
206 85 225 18 35 86 140 90 140 1 0 -31 -87 -71 -192z m1951 83 c-6 -5 -28
-14 -50 -21 -105 -31 -320 -124 -515 -221 -118 -59 -216 -106 -218 -105 -1 2
27 31 63 64 124 113 226 161 501 236 208 56 234 62 219 47z m-6079 -56 c139
-35 260 -79 334 -122 65 -37 166 -119 191 -155 l22 -30 -74 42 c-131 74 -401
204 -514 248 -143 56 -159 63 -120 56 17 -3 89 -21 161 -39z m-142 -67 c145
-43 283 -99 441 -182 135 -70 460 -258 479 -276 21 -21 -133 35 -286 104 -32
14 -58 22 -58 16 0 -5 5 -12 10 -15 6 -3 10 -12 10 -20 0 -10 -13 -9 -62 7
-35 10 -135 37 -223 59 -268 67 -430 111 -439 120 -15 13 -16 13 299 -45 160
-29 292 -52 293 -50 9 7 -114 61 -246 105 -79 27 -156 56 -171 65 l-26 15 25
-5 c14 -2 57 -7 95 -11 l70 -6 -55 30 c-30 16 -113 50 -185 76 -71 26 -132 49
-134 51 -8 8 64 -9 163 -38z m6265 32 c-8 -5 -74 -30 -145 -56 -71 -25 -149
-57 -174 -70 l-45 -24 75 5 c41 4 83 9 93 11 31 9 18 -5 -20 -21 -21 -9 -101
-38 -178 -65 -77 -27 -160 -58 -185 -69 l-45 -20 55 6 c30 3 158 23 285 44
126 20 231 36 233 34 5 -5 -127 -42 -393 -109 -143 -37 -271 -69 -285 -73
l-25 -6 24 27 c33 35 18 33 -88 -13 -93 -41 -261 -103 -261 -97 0 3 96 60 213
127 336 194 548 291 777 354 93 26 113 29 89 15z m-4195 -185 c47 -93 97 -190
111 -215 l26 -45 -39 43 c-51 54 -113 159 -150 253 -28 70 -50 150 -39 139 2
-3 43 -81 91 -175z m2046 74 c-35 -108 -82 -197 -146 -281 -25 -32 -46 -58
-47 -58 -1 0 46 99 106 221 59 122 110 219 113 217 2 -3 -9 -47 -26 -99z
m-1815 -284 l19 -30 -23 20 c-32 27 -103 129 -134 190 -52 105 -36 95 40 -25
43 -69 87 -138 98 -155z m1674 223 c-36 -94 -148 -256 -189 -273 -9 -4 -6 3 6
17 26 28 98 138 153 236 23 39 44 72 46 72 3 0 -4 -24 -16 -52z m-1594 -198
c4 -8 -4 -4 -19 10 -30 27 -106 136 -106 152 0 9 104 -127 125 -162z m1461
122 c-21 -40 -95 -132 -106 -132 -5 0 18 36 52 80 34 44 63 80 65 80 2 0 -3
-13 -11 -28z m-166 -92 c-11 -16 -35 -39 -53 -52 -28 -20 -30 -20 -18 -3 14
19 83 85 89 85 2 0 -6 -13 -18 -30z m-1205 -20 c21 -22 37 -40 34 -40 -3 0
-23 18 -44 40 -21 22 -37 40 -34 40 3 0 23 -18 44 -40z m-2155 -76 c74 -8 189
-26 255 -39 126 -26 290 -73 282 -81 -9 -9 -455 67 -588 100 -152 38 -142 43
51 20z m5660 12 c0 -13 -335 -81 -565 -116 -77 -11 -148 -22 -158 -24 -9 -2
-15 0 -12 5 8 13 154 55 270 78 167 33 465 70 465 57z m-3302 -221 c-3 -3 -45
-17 -94 -30 -146 -39 -260 -82 -419 -159 -372 -180 -752 -455 -1199 -869 -93
-86 -173 -157 -179 -157 -23 0 188 244 331 382 379 366 874 673 1255 780 139
38 323 70 305 53z m977 -27 c130 -28 250 -71 411 -148 476 -227 868 -536 1218
-959 47 -58 84 -106 82 -109 -3 -2 -87 73 -188 168 -602 566 -1124 904 -1600
1036 -51 14 -102 29 -113 35 -31 14 85 0 190 -23z m-1917 -80 c45 -6 82 -15
82 -19 0 -4 -8 -6 -18 -4 -35 6 -316 -15 -402 -30 -106 -20 -215 -55 -300 -98
-89 -46 -366 -195 -415 -225 l-40 -24 40 7 c42 7 122 39 318 125 65 29 120 50
123 48 2 -3 -28 -22 -66 -43 -38 -21 -68 -40 -66 -42 2 -2 41 5 86 16 110 28
117 26 40 -9 -67 -30 -216 -79 -445 -147 -96 -28 -122 -39 -100 -41 86 -10
406 70 735 184 11 4 12 2 4 -6 -6 -6 -67 -31 -135 -54 -121 -42 -218 -86 -349
-161 -36 -20 -129 -64 -208 -96 -79 -33 -174 -75 -211 -93 -96 -49 -234 -144
-316 -218 -55 -50 -64 -56 -45 -28 40 58 131 149 199 201 35 27 62 49 59 49
-20 0 -173 -60 -267 -105 -63 -31 -115 -54 -117 -52 -7 7 115 80 201 121 50
24 172 74 273 112 101 38 178 70 173 72 -28 9 -519 -107 -627 -149 -15 -5 -29
-8 -31 -6 -5 5 140 69 312 137 72 28 134 55 138 59 12 12 -155 -21 -320 -63
-78 -20 -146 -36 -150 -36 -26 1 96 48 382 147 220 76 314 115 660 275 164 77
325 148 357 159 135 45 294 59 446 37z m2955 -3 c112 -19 203 -54 417 -158
314 -153 576 -256 1088 -429 17 -6 32 -14 32 -18 0 -4 -87 14 -192 40 -183 45
-299 68 -288 57 3 -3 68 -31 145 -62 182 -74 327 -137 323 -141 -2 -1 -55 13
-118 32 -199 61 -524 134 -537 120 -2 -1 65 -29 149 -60 171 -65 397 -172 443
-210 23 -20 2 -13 -90 28 -66 29 -147 63 -180 75 l-60 21 35 -27 c64 -50 197
-183 230 -231 l33 -47 -34 31 c-19 17 -56 50 -82 75 -114 104 -257 188 -467
273 -63 26 -196 89 -296 141 -99 51 -225 109 -280 128 -127 45 -186 68 -181
74 2 2 76 -21 164 -51 271 -92 442 -134 603 -150 l55 -5 -34 15 c-19 9 -121
40 -225 71 -180 51 -373 120 -406 144 -13 10 -13 10 0 6 21 -6 169 -47 195
-53 l20 -5 -20 16 c-11 9 -46 30 -77 46 -31 16 -59 33 -63 39 -8 14 75 -20
177 -71 114 -58 329 -136 303 -110 -13 13 -355 201 -463 255 -48 24 -118 54
-157 66 -83 25 -266 49 -385 50 -47 0 -103 3 -125 7 l-40 7 60 12 c86 17 229
16 328 -1z m-3989 -65 c-5 -5 -36 -25 -68 -44 -77 -46 -47 -46 64 0 146 60
164 66 150 49 -21 -25 -150 -102 -226 -134 -39 -17 -111 -42 -160 -56 -98 -28
-376 -86 -383 -79 -8 7 102 51 262 104 87 28 157 53 155 55 -6 5 -212 -24
-318 -45 -58 -12 -143 -36 -190 -55 -67 -27 -80 -29 -60 -13 32 26 108 64 190
95 77 29 403 123 408 118 2 -2 -18 -15 -45 -29 l-48 -25 40 0 c23 0 81 17 135
38 91 36 115 41 94 21z m4986 -228 c135 -49 322 -116 417 -148 94 -33 170 -60
168 -62 -4 -5 -337 74 -455 107 -239 68 -455 156 -621 253 -164 97 -153 101
51 19 107 -43 305 -119 440 -169z m-320 198 c92 -37 170 -62 170 -55 0 2 -36
24 -80 50 -45 26 -79 49 -77 51 1 2 52 -14 112 -35 108 -38 185 -57 185 -47 0
3 -23 17 -51 32 -28 14 -49 27 -47 29 5 5 344 -88 413 -114 68 -26 218 -102
212 -108 -2 -2 -25 5 -49 16 -98 42 -267 78 -443 95 -57 6 -53 4 90 -49 83
-31 170 -64 195 -73 l45 -17 -36 -3 c-55 -5 -229 34 -378 84 -137 45 -336 136
-381 174 l-25 21 25 -7 c14 -3 68 -23 120 -44z m-4340 20 c-49 -37 -182 -112
-293 -165 -190 -90 -390 -153 -722 -229 -189 -43 -168 -24 49 44 290 93 363
119 543 196 174 75 418 171 438 173 6 0 -1 -8 -15 -19z m1402 -187 c-97 -124
-277 -433 -330 -568 -11 -27 -30 -74 -41 -103 -12 -29 -17 -51 -12 -48 5 3 43
63 84 133 79 135 172 278 164 253 -21 -63 -125 -298 -211 -478 -57 -120 -120
-262 -140 -317 -19 -55 -65 -183 -102 -285 -64 -180 -90 -240 -141 -328 -36
-61 -38 -46 -4 29 16 35 46 112 66 169 39 113 205 680 198 680 -8 0 -71 -143
-133 -302 -36 -92 -68 -168 -72 -168 -3 0 -4 19 -1 43 35 295 364 952 630
1258 68 79 100 101 45 32z m1362 -103 c240 -300 476 -752 555 -1063 56 -219
50 -229 -24 -42 -52 132 -160 365 -169 365 -3 0 3 -24 14 -52 10 -29 46 -145
80 -258 66 -219 148 -450 205 -575 20 -43 34 -80 31 -82 -8 -8 -84 129 -127
227 -22 52 -67 167 -99 255 -81 226 -134 353 -238 565 -79 163 -144 307 -189
420 l-14 35 21 -24 c11 -13 69 -104 127 -203 59 -98 109 -175 111 -170 4 12
-96 242 -139 319 -73 133 -116 204 -186 308 -73 109 -59 100 41 -25z m148 60
c88 -111 269 -444 367 -676 77 -184 129 -348 196 -619 29 -121 68 -260 85
-310 45 -131 46 -139 0 -53 -52 101 -74 161 -169 462 -44 138 -95 292 -114
341 -43 110 -205 468 -327 721 -49 103 -90 190 -90 193 0 6 6 -1 52 -59z
m-1839 -232 c-255 -557 -289 -641 -399 -1015 -72 -242 -112 -353 -157 -430
-27 -47 -30 -41 -8 16 32 80 77 244 130 471 79 344 135 495 295 805 108 210
240 425 261 425 2 0 -53 -123 -122 -272z m2066 72 c37 -52 112 -167 165 -255
107 -176 278 -436 283 -431 11 11 -119 284 -244 516 -55 102 -110 205 -122
230 l-22 45 42 -45 c148 -161 328 -496 502 -935 76 -192 171 -464 164 -471 -2
-2 -30 54 -62 124 -77 166 -234 455 -235 432 0 -3 16 -50 36 -105 47 -132 185
-577 180 -582 -4 -5 -70 149 -164 387 -38 96 -87 213 -108 260 -40 87 -111
221 -99 185 4 -11 22 -63 41 -115 18 -52 65 -214 103 -360 38 -146 77 -285 85
-309 21 -59 19 -64 -6 -16 -52 97 -108 244 -218 571 -152 448 -250 679 -399
938 -28 49 -51 92 -51 95 1 11 59 -61 129 -159z m-2112 98 c-39 -67 -161 -314
-205 -413 -75 -173 -145 -374 -227 -655 -20 -69 -53 -168 -72 -220 -39 -104
-124 -292 -130 -287 -1 2 6 30 17 63 12 32 41 142 66 244 67 275 93 376 119
449 12 36 26 75 29 86 4 11 -7 -7 -25 -40 -43 -81 -104 -226 -179 -425 -73
-192 -148 -371 -162 -385 -5 -5 -4 4 2 20 6 17 42 136 80 265 38 129 83 274
99 323 16 48 28 87 27 87 -10 0 -102 -171 -193 -355 -56 -115 -102 -207 -103
-203 0 13 144 427 195 558 103 265 258 572 362 719 49 68 133 166 133 155 0
-4 -49 -100 -110 -214 -142 -268 -280 -560 -265 -560 8 0 138 198 275 419 119
191 272 411 287 411 3 0 -6 -19 -20 -42z m458 -105 c-36 -92 -107 -388 -161
-667 -36 -187 -67 -343 -71 -346 -11 -10 5 265 21 355 25 138 84 368 121 469
37 101 84 206 92 206 3 0 2 -8 -2 -17z m1139 -60 c95 -189 188 -627 185 -868
l-1 -70 -14 75 c-8 41 -33 172 -55 290 -44 237 -82 396 -128 538 -33 100 -34
102 -26 102 3 0 20 -30 39 -67z m1656 -23 c176 -69 385 -195 520 -311 72 -62
190 -194 190 -212 0 -5 -37 26 -82 69 -99 95 -179 157 -289 225 -79 49 -349
189 -365 189 -14 0 -214 113 -214 121 0 8 111 -30 240 -81z m-4270 76 c0 -8
-158 -94 -310 -169 -236 -116 -398 -226 -547 -371 -40 -39 -73 -66 -73 -60 0
5 25 40 55 77 151 183 459 383 750 487 111 39 125 43 125 36z m2897 -423 c130
-231 164 -327 247 -704 30 -134 68 -287 85 -339 25 -79 27 -91 11 -70 -43 56
-100 229 -170 514 -42 171 -110 380 -130 400 -8 8 -9 4 -1 -16 20 -52 41 -195
57 -383 8 -104 21 -222 28 -262 7 -39 9 -70 5 -67 -17 10 -51 148 -89 359 -66
359 -182 791 -246 917 -8 15 -14 33 -14 40 0 7 33 -48 72 -122 39 -74 104
-194 145 -267z m-2837 373 c0 -5 -133 -80 -281 -159 -191 -103 -387 -251 -503
-381 -32 -37 -61 -65 -63 -62 -8 8 45 82 102 145 152 164 482 378 682 442 69
21 63 20 63 15z m481 -187 c-67 -156 -251 -571 -429 -966 -25 -57 -47 -101
-49 -99 -2 2 2 16 8 32 6 16 44 121 84 234 166 470 260 678 414 917 25 39 47
70 49 69 1 -2 -33 -86 -77 -187z m763 26 c-81 -234 -138 -477 -218 -922 -18
-103 -51 -213 -68 -228 -8 -7 -9 -5 -5 8 11 29 36 230 52 417 9 96 22 204 30
240 7 36 12 66 11 68 -10 9 -74 -204 -131 -430 -65 -257 -121 -429 -163 -498
-25 -40 -29 -29 -7 23 29 70 66 213 111 430 68 334 120 476 258 721 41 72 98
177 127 233 30 55 55 100 56 99 1 -1 -23 -73 -53 -161z m2832 104 c256 -107
471 -255 614 -424 87 -103 97 -126 18 -43 -123 131 -287 246 -588 413 -180
100 -225 129 -155 100 22 -9 72 -30 111 -46z m-2601 19 c-13 -59 -65 -217 -74
-223 -13 -7 15 108 45 188 28 72 40 87 29 35z m1036 -123 c40 -144 8 -102 -37
49 -13 44 -24 87 -23 95 1 24 38 -65 60 -144z m965 3 c74 -123 172 -322 235
-478 57 -143 227 -610 222 -610 -7 0 -155 312 -221 465 -33 77 -105 246 -160
376 -55 130 -119 274 -141 320 -51 105 -23 73 65 -73z m208 -202 c125 -254
364 -821 352 -834 -8 -7 -145 274 -255 521 -98 220 -135 309 -187 446 -43 113
1 49 90 -133z m-3950 128 c-178 -111 -317 -229 -395 -331 -62 -84 -66 -85 -28
-13 40 77 174 217 266 279 62 41 218 121 236 121 6 0 -30 -25 -79 -56z m586
-35 c-78 -211 -361 -842 -405 -900 -9 -13 -15 -17 -12 -9 22 64 129 329 188
467 75 178 249 537 255 530 3 -2 -9 -42 -26 -88z m3883 50 c174 -87 308 -198
396 -327 52 -77 50 -91 -3 -22 -69 91 -237 230 -400 334 -50 31 -87 56 -83 56
4 0 44 -19 90 -41z m-4022 -111 c-5 -13 -33 -69 -61 -126 -29 -57 -50 -105
-48 -107 2 -3 35 43 72 101 38 58 71 103 73 100 12 -12 -315 -630 -370 -698
-15 -18 -16 -19 -9 -3 38 78 142 307 142 311 0 3 -45 -51 -101 -120 -55 -69
-105 -129 -111 -132 -12 -8 -11 -5 55 95 27 40 94 155 150 254 133 240 241
409 208 325z m3651 -103 c24 -38 75 -126 113 -195 100 -183 174 -310 203 -350
l25 -35 -31 29 c-17 16 -64 73 -103 127 -40 54 -74 97 -76 95 -6 -5 42 -116
94 -220 92 -184 79 -180 -32 9 -87 149 -311 593 -303 601 3 3 32 -32 64 -78
91 -132 92 -129 11 29 -26 51 -47 96 -47 99 0 10 33 -35 82 -111z m-4137 96
c-49 -44 -218 -182 -221 -179 -11 11 196 187 221 188 5 0 5 -3 0 -9z m4666
-83 c27 -23 61 -57 76 -77 17 -24 20 -30 7 -20 -52 42 -181 153 -194 167 -27
28 61 -28 111 -70z m-305 -261 c35 -66 62 -123 59 -125 -10 -10 -132 208 -150
268 l-7 25 17 -23 c10 -13 46 -78 81 -145z m-4118 76 c-31 -70 -92 -168 -111
-180 -6 -3 13 38 42 93 51 94 88 154 96 154 2 0 -10 -30 -27 -67z"/>
</g>
</svg>
